<svg width="699" height="297" viewBox="0 0 699 297" fill="none" xmlns="http://www.w3.org/2000/svg">
    <mask id="mask0_22_368" style="mask-type:alpha" maskUnits="userSpaceOnUse" x="0" y="0" width="699" height="297">
        <rect width="699" height="296.634" fill="black"/>
    </mask>
    <g mask="url(#mask0_22_368)">
        <path d="M-1.7666 -40.1819H173.769V443.564H-1.7666V-40.1819Z" fill="white"/>
        <path fill-rule="evenodd" clip-rule="evenodd" d="M0 -2.50836H85.3966V309.851H0V-2.50836Z" fill="#00ACDC"/>
        <path fill-rule="evenodd" clip-rule="evenodd" d="M173.769 307.154V444.162H-1.96094V223.514V192.254V180.466C-1.96094 58.6071 76.7146 -40.1819 173.769 -40.1819V-10.5194H701.395V307.154H173.769Z" fill="#421A48"/>
        <path fill-rule="evenodd" clip-rule="evenodd" d="M-0.500862 446.425V187.241C69.0134 187.241 125.366 257.998 125.366 345.28V353.722V376.113V446.425H-0.500862Z" fill="#F1A944"/>
        <path fill-rule="evenodd" clip-rule="evenodd" d="M788.826 -29.2518C740.3 -29.2518 700.961 20.1427 700.961 81.0731V95.6881H700.939C700.95 96.4087 700.961 97.1292 700.961 97.8515V107.906C700.961 168.837 661.621 218.229 613.096 218.229H613.095C564.57 218.229 525.23 267.622 525.23 328.554V331.193V333.832V444.155H613.095H613.096H700.961H788.826H876.692V333.832V158.031V81.0731C876.692 20.1427 837.353 -29.2518 788.826 -29.2518Z" fill="#F1A944"/>
        <path d="M550.122 112.204L543.122 120.204L550.122 128.204" stroke="white"/>
        <path d="M557.122 112.204L564.122 120.204L557.122 128.204" stroke="white"/>
        <path d="M582.622 67.7039C582.622 73.25 578.346 77.7039 573.122 77.7039C567.898 77.7039 563.622 73.25 563.622 67.7039C563.622 62.1577 567.898 57.7039 573.122 57.7039C578.346 57.7039 582.622 62.1577 582.622 67.7039Z" stroke="#E2E3E4"/>
        <path d="M504.622 78.7039H515.122C518.712 78.7039 521.622 81.614 521.622 85.2039V94.7039H504.622V78.7039Z" stroke="#E2E3E4"/>
    </g>
</svg>
