<svg width="16" height="16" viewBox="0 0 16 16" fill="none" xmlns="http://www.w3.org/2000/svg">
<path fill-rule="evenodd" clip-rule="evenodd" d="M8.41303 13.8466C8.66099 14.1164 8.65422 14.538 8.39772 14.7993C8.12771 15.0745 7.6873 15.0655 7.4283 14.7796L0.11192 6.70287C-0.0224154 6.55457 -0.0374762 6.33103 0.0757099 6.16542L3.48002 1.18427C3.55893 1.06882 3.68826 1 3.82633 1H11.9863C12.1206 1 12.2469 1.06514 12.3264 1.17544L15.9181 6.15771C16.0395 6.3261 16.0245 6.55903 15.8826 6.70987L10.1224 12.8336C9.95437 13.0123 9.67345 13.0099 9.50832 12.8285L3.93635 6.70703C3.79971 6.55693 3.78588 6.32947 3.90328 6.16332L5.29392 4.19516C5.37323 4.08292 5.50068 4.01639 5.6364 4.01639H10.2649C10.4007 4.01639 10.5281 4.08292 10.6074 4.19516L11.9945 6.15828C12.1135 6.32669 12.0975 6.55766 11.9565 6.70736L10.337 8.42634C10.0997 8.67823 9.70739 8.68771 9.45864 8.44757C9.20674 8.2044 9.1982 7.79843 9.43963 7.54448L10.3166 6.62199C10.4115 6.52215 10.4217 6.36701 10.3407 6.25518L9.76138 5.4559C9.68182 5.34611 9.55584 5.28133 9.42191 5.28133H6.40999C6.26889 5.28133 6.13713 5.35319 6.05886 5.47283L5.60802 6.16194C5.4983 6.32965 5.51761 6.5525 5.65446 6.69803L9.5117 10.7995C9.67643 10.9746 9.95067 10.9763 10.1175 10.8032L14.069 6.70294C14.211 6.55559 14.2302 6.32618 14.1147 6.1565L11.6574 2.54715C11.5785 2.43133 11.449 2.36224 11.3106 2.36224H4.59191C4.45291 2.36224 4.32283 2.43199 4.24411 2.54872L1.80611 6.1639C1.69385 6.33036 1.71041 6.554 1.8459 6.70142L8.41303 13.8466Z" fill="black"/>
</svg>
